<svg xmlns="http://www.w3.org/2000/svg" width="816" height="310" viewBox="0 0 816 310">
  <g id="sill-web" transform="translate(-563 -2170)">
    <text id="PHOTOSHOP" transform="translate(563 2202)" fill="#333" font-size="28" font-family="NotoSansKR-Bold, Noto Sans KR" font-weight="700"><tspan x="0" y="0">PHOTOSHOP</tspan></text>
    <text id="POWER_POINT" data-name="POWER POINT" transform="translate(563 2472)" fill="#333" font-size="28" font-family="NotoSansKR-Bold, Noto Sans KR" font-weight="700"><tspan x="0" y="0">POWER POINT</tspan></text>
    <text id="JAVASCRIPT" transform="translate(563 2418)" fill="#333" font-size="28" font-family="NotoSansKR-Bold, Noto Sans KR" font-weight="700"><tspan x="0" y="0">JAVASCRIPT</tspan></text>
    <text id="CSS" transform="translate(563 2364)" fill="#333" font-size="28" font-family="NotoSansKR-Bold, Noto Sans KR" font-weight="700"><tspan x="0" y="0">CSS</tspan></text>
    <text id="HTML" transform="translate(563 2310)" fill="#333" font-size="28" font-family="NotoSansKR-Bold, Noto Sans KR" font-weight="700"><tspan x="0" y="0">HTML</tspan></text>
    <text id="ILLUSTRATOR" transform="translate(563 2256)" fill="#333" font-size="28" font-family="NotoSansKR-Bold, Noto Sans KR" font-weight="700"><tspan x="0" y="0">ILLUSTRATOR</tspan></text>
    <g id="그룹_28" data-name="그룹 28">
      <g id="사각형_6" data-name="사각형 6" transform="translate(847 2172)" fill="none" stroke="#ee8d96" stroke-width="1">
        <rect width="532" height="37" stroke="none"/>
        <rect x="0.5" y="0.5" width="531" height="36" fill="none"/>
      </g>
      <g id="사각형_9" data-name="사각형 9" transform="translate(847 2172)" fill="#ee8d96" stroke="#ee8d96" stroke-width="1">
        <rect width="486" height="37" stroke="none"/>
        <rect x="0.5" y="0.5" width="485" height="36" fill="none"/>
      </g>
    </g>
    <g id="그룹_29" data-name="그룹 29">
      <g id="사각형_11" data-name="사각형 11" transform="translate(847 2226)" fill="none" stroke="#ee8d96" stroke-width="1">
        <rect width="532" height="37" stroke="none"/>
        <rect x="0.5" y="0.5" width="531" height="36" fill="none"/>
      </g>
      <g id="사각형_10" data-name="사각형 10" transform="translate(847 2226)" fill="#ee8d96" stroke="#ee8d96" stroke-width="1">
        <rect width="447" height="37" stroke="none"/>
        <rect x="0.5" y="0.5" width="446" height="36" fill="none"/>
      </g>
    </g>
    <g id="그룹_30" data-name="그룹 30">
      <g id="사각형_13" data-name="사각형 13" transform="translate(847 2280)" fill="none" stroke="#ee8d96" stroke-width="1">
        <rect width="532" height="37" stroke="none"/>
        <rect x="0.5" y="0.5" width="531" height="36" fill="none"/>
      </g>
      <g id="사각형_12" data-name="사각형 12" transform="translate(847 2280)" fill="#ee8d96" stroke="#ee8d96" stroke-width="1">
        <rect width="425" height="37" stroke="none"/>
        <rect x="0.5" y="0.5" width="424" height="36" fill="none"/>
      </g>
    </g>
    <g id="그룹_31" data-name="그룹 31">
      <g id="사각형_15" data-name="사각형 15" transform="translate(847 2334)" fill="none" stroke="#ee8d96" stroke-width="1">
        <rect width="532" height="37" stroke="none"/>
        <rect x="0.5" y="0.5" width="531" height="36" fill="none"/>
      </g>
      <g id="사각형_14" data-name="사각형 14" transform="translate(847 2334)" fill="#ee8d96" stroke="#ee8d96" stroke-width="1">
        <rect width="425" height="37" stroke="none"/>
        <rect x="0.5" y="0.5" width="424" height="36" fill="none"/>
      </g>
    </g>
    <g id="그룹_32" data-name="그룹 32">
      <g id="사각형_17" data-name="사각형 17" transform="translate(847 2388)" fill="none" stroke="#ee8d96" stroke-width="1">
        <rect width="532" height="37" stroke="none"/>
        <rect x="0.5" y="0.5" width="531" height="36" fill="none"/>
      </g>
      <g id="사각형_16" data-name="사각형 16" transform="translate(847 2388)" fill="#ee8d96" stroke="#ee8d96" stroke-width="1">
        <rect width="354" height="37" stroke="none"/>
        <rect x="0.5" y="0.5" width="353" height="36" fill="none"/>
      </g>
    </g>
    <g id="그룹_33" data-name="그룹 33">
      <g id="사각형_19" data-name="사각형 19" transform="translate(847 2442)" fill="none" stroke="#ee8d96" stroke-width="1">
        <rect width="532" height="37" stroke="none"/>
        <rect x="0.5" y="0.5" width="531" height="36" fill="none"/>
      </g>
      <g id="사각형_18" data-name="사각형 18" transform="translate(847 2442)" fill="#ee8d96" stroke="#ee8d96" stroke-width="1">
        <rect width="513" height="37" stroke="none"/>
        <rect x="0.5" y="0.5" width="512" height="36" fill="none"/>
      </g>
    </g>
  </g>
</svg>
