<svg xmlns="http://www.w3.org/2000/svg" width="312" height="300" viewBox="0 0 312 300">
  <g id="skill-mobile" transform="translate(-3312 -1241)">
    <text id="PHOTOSHOP" transform="translate(3312 1264)" fill="#333" font-size="18" font-family="NotoSansKR-Bold, Noto Sans KR" font-weight="700"><tspan x="0" y="0">PHOTOSHOP</tspan></text>
    <text id="POWER_POINT" data-name="POWER POINT" transform="translate(3312 1534)" fill="#333" font-size="18" font-family="NotoSansKR-Bold, Noto Sans KR" font-weight="700"><tspan x="0" y="0">POWER POINT</tspan></text>
    <text id="JAVASCRIPT" transform="translate(3312 1480)" fill="#333" font-size="18" font-family="NotoSansKR-Bold, Noto Sans KR" font-weight="700"><tspan x="0" y="0">JAVASCRIPT</tspan></text>
    <text id="CSS" transform="translate(3312 1426)" fill="#333" font-size="18" font-family="NotoSansKR-Bold, Noto Sans KR" font-weight="700"><tspan x="0" y="0">CSS</tspan></text>
    <text id="HTML" transform="translate(3312 1372)" fill="#333" font-size="18" font-family="NotoSansKR-Bold, Noto Sans KR" font-weight="700"><tspan x="0" y="0">HTML</tspan></text>
    <text id="ILLUSTRATOR" transform="translate(3312 1318)" fill="#333" font-size="18" font-family="NotoSansKR-Bold, Noto Sans KR" font-weight="700"><tspan x="0" y="0">ILLUSTRATOR</tspan></text>
    <g id="그룹_19" data-name="그룹 19">
      <g id="사각형_6" data-name="사각형 6" transform="translate(3444 1241)" fill="none" stroke="#ee8d96" stroke-width="1">
        <rect width="180" height="30" stroke="none"/>
        <rect x="0.5" y="0.5" width="179" height="29" fill="none"/>
      </g>
      <g id="사각형_9" data-name="사각형 9" transform="translate(3444 1241)" fill="#ee8d96" stroke="#ee8d96" stroke-width="1">
        <rect width="159" height="30" stroke="none"/>
        <rect x="0.5" y="0.5" width="158" height="29" fill="none"/>
      </g>
    </g>
    <g id="그룹_20" data-name="그룹 20">
      <g id="사각형_11" data-name="사각형 11" transform="translate(3444 1295)" fill="none" stroke="#ee8d96" stroke-width="1">
        <rect width="180" height="30" stroke="none"/>
        <rect x="0.5" y="0.5" width="179" height="29" fill="none"/>
      </g>
      <g id="사각형_10" data-name="사각형 10" transform="translate(3444 1295)" fill="#ee8d96" stroke="#ee8d96" stroke-width="1">
        <rect width="148" height="30" stroke="none"/>
        <rect x="0.5" y="0.5" width="147" height="29" fill="none"/>
      </g>
    </g>
    <g id="그룹_21" data-name="그룹 21">
      <g id="사각형_13" data-name="사각형 13" transform="translate(3444 1349)" fill="none" stroke="#ee8d96" stroke-width="1">
        <rect width="180" height="30" stroke="none"/>
        <rect x="0.5" y="0.5" width="179" height="29" fill="none"/>
      </g>
      <g id="사각형_12" data-name="사각형 12" transform="translate(3444 1349)" fill="#ee8d96" stroke="#ee8d96" stroke-width="1">
        <rect width="137" height="30" stroke="none"/>
        <rect x="0.5" y="0.5" width="136" height="29" fill="none"/>
      </g>
    </g>
    <g id="그룹_22" data-name="그룹 22">
      <g id="사각형_15" data-name="사각형 15" transform="translate(3444 1403)" fill="none" stroke="#ee8d96" stroke-width="1">
        <rect width="180" height="30" stroke="none"/>
        <rect x="0.5" y="0.5" width="179" height="29" fill="none"/>
      </g>
      <g id="사각형_14" data-name="사각형 14" transform="translate(3444 1403)" fill="#ee8d96" stroke="#ee8d96" stroke-width="1">
        <rect width="137" height="30" stroke="none"/>
        <rect x="0.5" y="0.5" width="136" height="29" fill="none"/>
      </g>
    </g>
    <g id="그룹_23" data-name="그룹 23">
      <g id="사각형_17" data-name="사각형 17" transform="translate(3444 1457)" fill="none" stroke="#ee8d96" stroke-width="1">
        <rect width="180" height="30" stroke="none"/>
        <rect x="0.5" y="0.5" width="179" height="29" fill="none"/>
      </g>
      <g id="사각형_16" data-name="사각형 16" transform="translate(3444 1457)" fill="#ee8d96" stroke="#ee8d96" stroke-width="1">
        <rect width="121" height="30" stroke="none"/>
        <rect x="0.5" y="0.5" width="120" height="29" fill="none"/>
      </g>
    </g>
    <g id="그룹_24" data-name="그룹 24">
      <g id="사각형_19" data-name="사각형 19" transform="translate(3444 1511)" fill="none" stroke="#ee8d96" stroke-width="1">
        <rect width="180" height="30" stroke="none"/>
        <rect x="0.5" y="0.5" width="179" height="29" fill="none"/>
      </g>
      <g id="사각형_18" data-name="사각형 18" transform="translate(3444 1511)" fill="#ee8d96" stroke="#ee8d96" stroke-width="1">
        <rect width="169" height="30" stroke="none"/>
        <rect x="0.5" y="0.5" width="168" height="29" fill="none"/>
      </g>
    </g>
  </g>
</svg>
