<svg xmlns="http://www.w3.org/2000/svg" width="24.545" height="34.56" viewBox="0 0 24.545 34.56">
  <path id="Icon_map-volume-control-telephone" data-name="Icon map-volume-control-telephone" d="M12.24,15.12h1.931c.579,0,.949-.851.949-1.426V7.615c0-.575-.37-.415-.949-.415H12.24Zm0,11.52h1.931c.579,0,.949.668.949,1.244v6.078c0,.572-.37,1.318-.949,1.318H12.24ZM9.691,20.88c-.017-5.556,1.028-5.76,1.624-5.76h.205V7.2h-.246C10.213,7.2,5.04,8.943,5.04,21.239S10.213,35.28,11.274,35.28h.246V26.64h-.205C10.719,26.64,9.707,26.433,9.691,20.88ZM16.7,8.913a2.353,2.353,0,0,1,0,2.994l1.15.946a3.853,3.853,0,0,0,0-4.887l-1.15.947Zm3.7,6.67A7.439,7.439,0,0,0,20.406,5.55l-1.118.975a5.951,5.951,0,0,1-.017,8.083l1.127.975Zm2.544,2.73a11.057,11.057,0,0,0,.025-15.177l-1.1,1a9.586,9.586,0,0,1-.017,13.17Zm2.555,2.73A14.7,14.7,0,0,0,25.52.72L24.445,1.748a13.2,13.2,0,0,1-.024,18.261L25.5,21.043Z" transform="translate(-5.04 -0.72)"/>
</svg>
